<mxfile host="app.diagrams.net" modified="2023-09-25T03:26:19.917Z" agent="Mozilla/5.0 (Macintosh; Intel Mac OS X 10_15_7) AppleWebKit/537.36 (KHTML, like Gecko) Chrome/116.0.0.0 Safari/537.36" version="21.8.2" etag="4xQ61L12PzqtBS-XnhdU" type="github">
  <diagram name="第 1 页" id="MkmUPniHzzvrvHU91z1g">
    <mxGraphModel>
      <root>
        <mxCell id="0" />
        <mxCell id="1" parent="0" />
      </root>
    </mxGraphModel>
  </diagram>
</mxfile>
